# xmcd
#
# Track frame offsets:
#	150
#	7801
#	21864
#	39086
#	57304
#	77104
#	92367
#	107601
#	123988
#
# Disc length: 1930 seconds
#
# Revision: 1
# Processed by: cddbd v1.5.2PL0 Copyright (c) Steve Scherf et al.
# Submitted via: audiograbber 1.83.01
#
DISCID=59078809
DTITLE=Anatomy - Overtreatment
DYEAR=2008
DGENRE=Grindcore
TTITLE0=Vicodin - Intro
TTITLE1=Balanoposthitis
TTITLE2=A Cute Trombosis In The REnal Vein
TTITLE3=Papillary Carcinoma
TTITLE4=Hemolytic Anemia
TTITLE5=Granulomatosis
TTITLE6=Systemic Lupus Erythematosus
TTITLE7=Urticaria Pigmentosa
TTITLE8=Malignant Otitis Externa
EXTD=
EXTT0=
EXTT1=
EXTT2=
EXTT3=
EXTT4=
EXTT5=
EXTT6=
EXTT7=
EXTT8=
PLAYORDER=
